<svg width="35" height="35" viewBox="0 0 35 35" fill="none" xmlns="http://www.w3.org/2000/svg">
<g id="facebook">
<path id="Vector" d="M22.4613 30.625V20.4663H25.8636L26.3725 16.5171H22.4613V13.9971C22.4613 12.8537 22.7792 12.0735 24.4183 12.0735H26.5096V8.54146C25.4972 8.43404 24.4797 8.38195 23.4617 8.38542C20.4473 8.38542 18.3838 10.2258 18.3838 13.6063V16.5171H14.9742V20.4663H18.3838V30.625H5.83335C5.44657 30.625 5.07564 30.4714 4.80215 30.1979C4.52866 29.9244 4.37502 29.5534 4.37502 29.1667V5.83333C4.37502 5.44656 4.52866 5.07563 4.80215 4.80214C5.07564 4.52865 5.44657 4.375 5.83335 4.375H29.1667C29.5535 4.375 29.9244 4.52865 30.1979 4.80214C30.4714 5.07563 30.625 5.44656 30.625 5.83333V29.1667C30.625 29.5534 30.4714 29.9244 30.1979 30.1979C29.9244 30.4714 29.5535 30.625 29.1667 30.625H22.4613Z" fill="white"/>
</g>
</svg>
