<svg width="35" height="35" viewBox="0 0 35 35" fill="none" xmlns="http://www.w3.org/2000/svg">
<g id="instagram">
<path id="Vector" d="M17.5 13.1248C16.3397 13.1248 15.2269 13.5858 14.4064 14.4062C13.586 15.2267 13.125 16.3395 13.125 17.4998C13.125 18.6602 13.586 19.773 14.4064 20.5934C15.2269 21.4139 16.3397 21.8748 17.5 21.8748C18.6603 21.8748 19.7731 21.4139 20.5936 20.5934C21.4141 19.773 21.875 18.6602 21.875 17.4998C21.875 16.3395 21.4141 15.2267 20.5936 14.4062C19.7731 13.5858 18.6603 13.1248 17.5 13.1248ZM17.5 10.2082C19.4339 10.2082 21.2886 10.9764 22.656 12.3438C24.0235 13.7113 24.7917 15.566 24.7917 17.4998C24.7917 19.4337 24.0235 21.2884 22.656 22.6558C21.2886 24.0233 19.4339 24.7915 17.5 24.7915C15.5661 24.7915 13.7115 24.0233 12.344 22.6558C10.9766 21.2884 10.2084 19.4337 10.2084 17.4998C10.2084 15.566 10.9766 13.7113 12.344 12.3438C13.7115 10.9764 15.5661 10.2082 17.5 10.2082ZM26.9792 9.84359C26.9792 10.3271 26.7871 10.7907 26.4453 11.1326C26.1034 11.4744 25.6397 11.6665 25.1563 11.6665C24.6728 11.6665 24.2091 11.4744 23.8673 11.1326C23.5254 10.7907 23.3334 10.3271 23.3334 9.84359C23.3334 9.36012 23.5254 8.89645 23.8673 8.55459C24.2091 8.21273 24.6728 8.02067 25.1563 8.02067C25.6397 8.02067 26.1034 8.21273 26.4453 8.55459C26.7871 8.89645 26.9792 9.36012 26.9792 9.84359ZM17.5 5.83317C13.8921 5.83317 13.3029 5.84338 11.6244 5.91775C10.4811 5.97171 9.71398 6.12484 9.00231 6.40192C8.40675 6.62058 7.86833 6.97105 7.42731 7.42713C6.97086 7.86813 6.61991 8.40652 6.40065 9.00213C6.12356 9.71671 5.97044 10.4823 5.91794 11.6242C5.8421 13.2342 5.83335 13.7971 5.83335 17.4998C5.83335 21.1078 5.84356 21.6969 5.91794 23.3755C5.9719 24.5173 6.12502 25.2859 6.40065 25.9961C6.64856 26.6305 6.94023 27.0869 7.4244 27.5711C7.91585 28.0611 8.37231 28.3542 8.9994 28.5963C9.71981 28.8748 10.4869 29.0294 11.6244 29.0819C13.2344 29.1578 13.7973 29.1665 17.5 29.1665C21.1079 29.1665 21.6971 29.1563 23.3756 29.0819C24.5161 29.028 25.2846 28.8748 25.9963 28.5992C26.5909 28.3795 27.129 28.0297 27.5713 27.5755C28.0627 27.084 28.3559 26.6275 28.5979 26.0005C28.875 25.2815 29.0296 24.513 29.0821 23.3755C29.1579 21.7655 29.1667 21.2025 29.1667 17.4998C29.1667 13.8919 29.1565 13.3028 29.0821 11.6242C29.0281 10.4838 28.875 9.7138 28.5979 9.00213C28.3782 8.40711 28.0279 7.86891 27.5727 7.42713C27.1319 6.97045 26.5935 6.61946 25.9977 6.40046C25.2831 6.12338 24.5161 5.97025 23.3756 5.91775C21.7656 5.84192 21.2027 5.83317 17.5 5.83317ZM17.5 2.9165C21.4623 2.9165 21.9567 2.93109 23.5113 3.004C25.0644 3.07692 26.1217 3.32046 27.0521 3.68213C28.0146 4.05255 28.8254 4.55421 29.6363 5.36359C30.3786 6.09275 30.9517 6.97505 31.3177 7.94775C31.6779 8.87671 31.9229 9.93546 31.9959 11.4886C32.0644 13.0432 32.0834 13.5375 32.0834 17.4998C32.0834 21.4621 32.0688 21.9565 31.9959 23.5111C31.9229 25.0642 31.6779 26.1215 31.3177 27.0519C30.9527 28.0258 30.3787 28.9078 29.6363 29.6361C28.9071 30.3769 28.0248 30.9515 27.0521 31.3175C26.1231 31.6778 25.0644 31.9228 23.5113 31.9957C21.9567 32.0642 21.4623 32.0832 17.5 32.0832C13.5377 32.0832 13.0434 32.0686 11.4888 31.9957C9.93564 31.9228 8.87835 31.6778 7.94794 31.3175C6.97425 30.9522 6.09225 30.3783 5.36377 29.6361C4.62207 28.9072 4.04825 28.0253 3.68231 27.0519C3.32065 26.123 3.0771 25.0642 3.00419 23.5111C2.93565 21.9565 2.91669 21.4621 2.91669 17.4998C2.91669 13.5375 2.93127 13.0432 3.00419 11.4886C3.0771 9.934 3.32065 8.87817 3.68231 7.94775C4.04724 6.97385 4.62119 6.09176 5.36377 5.36359C6.09246 4.62163 6.97439 4.04778 7.94794 3.68213C8.87835 3.32046 9.93419 3.07692 11.4888 3.004C13.0434 2.93546 13.5377 2.9165 17.5 2.9165Z" fill="white"/>
</g>
</svg>
