<svg width="35" height="35" viewBox="0 0 35 35" fill="none" xmlns="http://www.w3.org/2000/svg">
<g id="youtube">
<path id="Vector" d="M31.4169 9.47592C32.0834 12.0747 32.0834 17.4997 32.0834 17.4997C32.0834 17.4997 32.0834 22.9247 31.4169 25.5234C31.0465 26.9599 29.963 28.0901 28.5907 28.4722C26.0984 29.1663 17.5001 29.1663 17.5001 29.1663C17.5001 29.1663 8.90609 29.1663 6.40943 28.4722C5.0313 28.0843 3.94922 26.9555 3.58318 25.5234C2.91672 22.9247 2.91672 17.4997 2.91672 17.4997C2.91672 17.4997 2.91672 12.0747 3.58318 9.47592C3.95359 8.03947 5.03713 6.90926 6.40943 6.52717C8.90609 5.83301 17.5001 5.83301 17.5001 5.83301C17.5001 5.83301 26.0984 5.83301 28.5907 6.52717C29.9688 6.91509 31.0509 8.04384 31.4169 9.47592ZM14.5834 22.6038L23.3334 17.4997L14.5834 12.3955V22.6038Z" fill="white"/>
</g>
</svg>
